<?xml version="1.0" standalone="no"?>
<!DOCTYPE svg PUBLIC "-//W3C//DTD SVG 20010904//EN"
 "http://www.w3.org/TR/2001/REC-SVG-20010904/DTD/svg10.dtd">
<svg version="1.0" xmlns="http://www.w3.org/2000/svg"
 width="975.000000pt" height="115.000000pt" viewBox="0 0 975.000000 115.000000"
 preserveAspectRatio="xMidYMid meet">

<g transform="translate(0.000000,115.000000) scale(0.100000,-0.100000)"
fill="#000000" stroke="none">
<path d="M9071 1124 c-85 -23 -136 -49 -186 -95 -71 -66 -90 -108 -89 -204 0
-96 25 -155 86 -210 58 -53 111 -72 312 -111 100 -20 200 -44 223 -54 105 -46
110 -170 10 -222 -58 -30 -192 -37 -271 -14 -63 19 -132 73 -142 112 -6 24 -8
24 -131 24 l-125 0 7 -27 c15 -63 72 -149 130 -196 204 -164 622 -154 775 20
72 83 92 232 42 328 -56 108 -153 159 -402 210 -96 19 -192 43 -213 52 -70 30
-86 100 -37 156 36 41 92 60 180 59 118 0 192 -35 220 -102 l12 -30 125 0
c124 0 124 0 118 23 -39 133 -162 240 -322 282 -73 19 -250 19 -322 -1z"/>
<path d="M10 575 l0 -545 120 0 120 0 0 230 0 230 220 0 220 0 0 -230 0 -230
120 0 120 0 0 545 0 545 -120 0 -120 0 0 -220 0 -220 -220 0 -220 0 0 220 0
220 -120 0 -120 0 0 -545z"/>
<path d="M1429 1093 c-65 -170 -389 -1048 -389 -1054 0 -5 53 -9 118 -9 l118
0 144 435 c79 239 144 435 145 435 1 0 66 -196 145 -435 l144 -435 122 0 122
0 -49 132 c-27 73 -118 317 -202 543 l-152 410 -128 3 -127 3 -11 -28z"/>
<path d="M2200 575 l0 -545 120 0 120 0 0 184 0 184 183 5 c234 6 289 22 380
106 42 39 80 106 92 160 4 18 7 68 7 111 -1 132 -54 231 -152 284 -94 51 -130
56 -452 56 l-298 0 0 -545z m590 333 c52 -36 72 -82 68 -155 -4 -67 -21 -99
-72 -137 -24 -19 -44 -21 -187 -24 l-159 -4 0 171 0 171 159 0 c147 0 160 -1
191 -22z"/>
<path d="M3230 575 l0 -545 120 0 120 0 0 184 0 184 183 5 c234 6 289 22 380
106 42 39 80 106 92 160 4 18 7 68 7 111 -1 132 -54 231 -152 284 -94 51 -130
56 -452 56 l-298 0 0 -545z m590 333 c52 -36 72 -82 68 -155 -4 -67 -21 -99
-72 -137 -24 -19 -44 -21 -187 -24 l-159 -4 0 171 0 171 159 0 c147 0 160 -1
191 -22z"/>
<path d="M4193 1113 c3 -4 91 -158 196 -341 l191 -333 0 -205 0 -204 120 0
120 0 0 206 0 207 195 338 194 339 -132 0 -132 0 -100 -187 c-55 -102 -110
-208 -122 -235 l-22 -49 -75 143 c-41 79 -97 184 -124 233 l-50 90 -132 3
c-72 1 -129 -1 -127 -5z"/>
<path d="M5250 1025 l0 -95 170 0 170 0 0 -450 0 -450 125 0 125 0 0 450 0
450 173 2 172 3 3 93 3 92 -471 0 -470 0 0 -95z"/>
<path d="M6609 1093 c-65 -170 -389 -1048 -389 -1054 0 -5 54 -9 120 -9 l119
0 142 430 c77 237 142 430 144 430 1 0 67 -193 145 -430 l143 -430 123 0 122
0 -49 132 c-27 73 -118 317 -202 543 l-152 410 -128 3 -127 3 -11 -28z"/>
<path d="M7400 575 l0 -545 120 0 120 0 0 545 0 545 -120 0 -120 0 0 -545z"/>
<path d="M7850 575 l0 -545 415 0 416 0 -3 92 -3 93 -292 3 -293 2 0 450 0
450 -120 0 -120 0 0 -545z"/>
<path d="M1513 369 c-44 -13 -90 -63 -103 -110 -21 -77 14 -155 84 -188 54
-26 88 -26 142 0 110 53 121 216 19 279 -38 24 -100 32 -142 19z"/>
<path d="M6693 369 c-44 -13 -90 -63 -103 -110 -21 -77 14 -155 84 -188 54
-26 88 -26 142 0 110 53 121 216 19 279 -38 24 -100 32 -142 19z"/>
</g>
</svg>
