<?xml version="1.0" encoding="UTF-8"?>
<svg id="_레이어_1" data-name="레이어 1" xmlns="http://www.w3.org/2000/svg" viewBox="0 0 290 58">
  <defs>
    <style>
      .cls-1 {
        opacity: .7;
      }
    </style>
  </defs>
  <path d="m30.26,34.1h-12.37v13.11h-6.87v-30.82h6.87v12.41h12.37v-12.41h6.87v30.82h-6.87v-13.11Z"/>
  <path d="m88.09,16.39c7.15,0,11.31,3.61,11.31,9.97s-4.16,10.33-11.35,10.33h-7.38v10.52h-6.87v-30.82h14.29Zm-.35,15c3.14,0,4.83-2,4.83-4.83s-1.69-4.87-4.83-4.87h-7.07v9.7h7.07Z"/>
  <path d="m117.81,16.39c7.15,0,11.31,3.61,11.31,9.97s-4.16,10.33-11.35,10.33h-7.38v10.52h-6.87v-30.82h14.29Zm-.35,15c3.14,0,4.83-2,4.83-4.83s-1.69-4.87-4.83-4.87h-7.07v9.7h7.07Z"/>
  <path d="m140.39,47.21v-11.5l-11.07-19.32h7.34l5.81,10.72,1.26,2.75,1.26-2.75,5.81-10.72h7.34l-11.07,19.32v11.5h-6.67Z"/>
  <path d="m159.9,16.39h26.46v5.34h-9.78v25.48h-6.91v-25.48h-9.78v-5.34Z"/>
  <path d="m218.13,16.39h6.91v30.82h-6.91v-30.82Z"/>
  <path d="m231.32,16.39h6.91v25.52h16.41v5.3h-23.32v-30.82Z"/>
  <path d="m255.62,38.11h6.87c.79,3.02,3.89,4.4,7.66,4.4s6.36-1.45,6.36-3.89c0-2.08-1.49-3.38-4.52-3.97l-7.7-1.49c-5.22-1.02-7.77-4.08-7.77-8.56,0-4.91,4.59-8.8,12.76-8.8,7.38,0,12.49,4.28,13.43,9.19h-6.95c-.59-2.55-2.94-3.89-6.71-3.89-3.49,0-5.77,1.41-5.77,3.46s1.34,2.91,3.73,3.38l6.56,1.3c6.83,1.34,9.74,4.48,9.74,9.23,0,5.97-5.26,9.34-13.07,9.34s-13.66-3.89-14.61-9.7Z"/>
  <polygon points="70.46 47.21 59 16.39 51.93 16.39 40.47 47.21 47.34 47.21 48.37 44.18 48.37 44.18 51.3 35.55 55.47 23.11 56.93 27.74 56.93 27.74 61.39 40.78 61.39 40.78 62.39 43.68 62.39 43.69 62.39 43.69 63.59 47.21 70.46 47.21"/>
  <polygon points="214.2 47.21 202.74 16.39 195.67 16.39 184.2 47.21 191.07 47.21 192.39 43.36 199.2 23.11 206.22 43.96 207.33 47.21 214.2 47.21"/>
  <circle class="cls-1" cx="199.29" cy="41.95" r="4.95"/>
  <circle class="cls-1" cx="55.52" cy="41.95" r="4.95"/>
</svg>